<svg xmlns="http://www.w3.org/2000/svg" xmlns:xlink="http://www.w3.org/1999/xlink" width="171" height="50" viewBox="0 0 171 50">
  <defs>
    <rect id="logo-a" width="46" height="30"/>
  </defs>
  <g fill="none" fill-rule="evenodd">
    <text fill="#225DA0" font-family="HelveticaNeue-Bold, Helvetica Neue" font-size="40" font-weight="bold">
      <tspan x="64" y="47">B PO</tspan>
    </text>
    <rect width="5" height="19" x="27" y="6" fill="#225DA0"/>
    <circle cx="30" cy="6" r="6" fill="#225DA0"/>
    <ellipse cx="7.5" cy="33" fill="#225DA0" rx="7.5" ry="8"/>
    <ellipse cx="52.5" cy="33" fill="#225DA0" rx="7.5" ry="8"/>
    <g transform="translate(7 20)">
      <mask id="logo-b" fill="#fff">
        <use xlink:href="#logo-a"/>
      </mask>
      <rect width="45" height="29" x=".5" y=".5" stroke="#FFF"/>
      <polygon fill="#F5F5F5" points="11.032 5.967 8.782 5.967 8.057 3.6 7.333 5.967 5.057 5.967 6.888 7.438 6.157 9.823 8.045 8.316 9.934 9.823 9.2 7.438" mask="url(#logo-b)"/>
      <polygon fill="#F5F5F5" points="6.355 13.167 4.105 13.167 3.379 10.8 2.655 13.167 .38 13.167 2.211 14.638 1.479 17.023 3.367 15.516 5.257 17.023 4.523 14.638" mask="url(#logo-b)"/>
      <polygon fill="#F5F5F5" points="11.032 21.567 8.782 21.567 8.057 19.2 7.333 21.567 5.057 21.567 6.888 23.038 6.157 25.423 8.045 23.916 9.934 25.423 9.2 23.038" mask="url(#logo-b)"/>
      <polygon fill="#F5F5F5" points="20.387 5.967 18.137 5.967 17.412 3.6 16.687 5.967 14.412 5.967 16.243 7.438 15.511 9.823 17.399 8.316 19.289 9.823 18.555 7.438" mask="url(#logo-b)"/>
      <polygon fill="#F5F5F5" points="15.709 13.167 13.46 13.167 12.734 10.8 12.01 13.167 9.735 13.167 11.565 14.638 10.834 17.023 12.722 15.516 14.611 17.023 13.878 14.638" mask="url(#logo-b)"/>
      <polygon fill="#F5F5F5" points="20.387 21.567 18.137 21.567 17.412 19.2 16.687 21.567 14.412 21.567 16.243 23.038 15.511 25.423 17.399 23.916 19.289 25.423 18.555 23.038" mask="url(#logo-b)"/>
      <polygon fill="#F5F5F5" points="29.741 5.967 27.492 5.967 26.766 3.6 26.042 5.967 23.767 5.967 25.597 7.438 24.866 9.823 26.754 8.316 28.643 9.823 27.91 7.438" mask="url(#logo-b)"/>
      <polygon fill="#F5F5F5" points="40.265 5.967 38.016 5.967 37.29 3.6 36.566 5.967 34.291 5.967 36.121 7.438 35.39 9.823 37.278 8.316 39.167 9.823 38.434 7.438" mask="url(#logo-b)"/>
      <polygon fill="#F5F5F5" points="25.064 13.167 22.814 13.167 22.089 10.8 21.365 13.167 19.089 13.167 20.92 14.638 20.189 17.023 22.077 15.516 23.966 17.023 23.232 14.638" mask="url(#logo-b)"/>
      <polygon fill="#F5F5F5" points="35.588 13.167 33.338 13.167 32.613 10.8 31.889 13.167 29.613 13.167 31.444 14.638 30.713 17.023 32.601 15.516 34.49 17.023 33.756 14.638" mask="url(#logo-b)"/>
      <polygon fill="#F5F5F5" points="29.741 21.567 27.492 21.567 26.766 19.2 26.042 21.567 23.767 21.567 25.597 23.038 24.866 25.423 26.754 23.916 28.643 25.423 27.91 23.038" mask="url(#logo-b)"/>
      <polygon fill="#F5F5F5" points="40.265 21.567 38.016 21.567 37.29 19.2 36.566 21.567 34.291 21.567 36.121 23.038 35.39 25.423 37.278 23.916 39.167 25.423 38.434 23.038" mask="url(#logo-b)"/>
      <rect width="25.725" height="30" x="20.259" fill="#F5F5F5" mask="url(#logo-b)"/>
      <rect width="28.064" height="6.115" x="20" y="1" fill="#E42928" mask="url(#logo-b)"/>
      <rect width="28.064" height="6.115" x="20" y="12.465" fill="#E42928" mask="url(#logo-b)"/>
      <rect width="28.064" height="6.115" x="20" y="22.657" fill="#E42928" mask="url(#logo-b)"/>
    </g>
    <rect width="21" height="6" x="93" y="19" fill="#E42928"/>
    <rect width="21" height="6" x="93" y="30" fill="#E42928"/>
    <rect width="21" height="6" x="93" y="41" fill="#E42928"/>
    <rect width="6" height="28" x="108" y="19" fill="#E42928"/>
  </g>
</svg>
